%TF.GenerationSoftware,KiCad,Pcbnew,7.0.7*%
%TF.CreationDate,2023-10-01T20:01:11+02:00*%
%TF.ProjectId,testing_board,74657374-696e-4675-9f62-6f6172642e6b,rev?*%
%TF.SameCoordinates,Original*%
%TF.FileFunction,Plated,1,2,PTH,Drill*%
%TF.FilePolarity,Positive*%
%FSLAX46Y46*%
G04 Gerber Fmt 4.6, Leading zero omitted, Abs format (unit mm)*
G04 Created by KiCad (PCBNEW 7.0.7) date 2023-10-01 20:01:11*
%MOMM*%
%LPD*%
G01*
G04 APERTURE LIST*
%TA.AperFunction,ViaDrill*%
%ADD10C,0.300000*%
%TD*%
%TA.AperFunction,ComponentDrill*%
%ADD11C,0.680000*%
%TD*%
%TA.AperFunction,ComponentDrill*%
%ADD12C,1.000000*%
%TD*%
G04 APERTURE END LIST*
D10*
X101500000Y-45750000D03*
X104000000Y-52500000D03*
X104000000Y-54750000D03*
X108500000Y-63250000D03*
X114000000Y-51250000D03*
X116400000Y-73800000D03*
X117250000Y-73750000D03*
X118500000Y-52750000D03*
X118500000Y-54250000D03*
X118500000Y-73750000D03*
X119300000Y-73800000D03*
X122250000Y-87500000D03*
X126000000Y-72250000D03*
X126500000Y-58250000D03*
X127000000Y-72250000D03*
X127600000Y-71400000D03*
X128075000Y-54500000D03*
X128250000Y-72250000D03*
X128900000Y-71600000D03*
X129500000Y-72250000D03*
X130100000Y-71500000D03*
X130400000Y-98100000D03*
X130750000Y-72250000D03*
X131000000Y-82500000D03*
X131250000Y-98250000D03*
X132000000Y-72250000D03*
X132700000Y-92400000D03*
X132750000Y-93500000D03*
X133250000Y-97500000D03*
X134300000Y-96500000D03*
X142500000Y-83998500D03*
X143750000Y-83998500D03*
X146734677Y-78765323D03*
X147718098Y-78781904D03*
X150400000Y-99000000D03*
X151250000Y-57500000D03*
X151250000Y-99000000D03*
X152500000Y-82000000D03*
X152984677Y-94000000D03*
X153000000Y-99000000D03*
X153300000Y-82000000D03*
X153750000Y-97250000D03*
X153750000Y-99000000D03*
X153800000Y-94000000D03*
X154500000Y-97200000D03*
D11*
%TO.C,J4*%
X127000000Y-77575000D03*
X128270000Y-77575000D03*
X129540000Y-77575000D03*
X130810000Y-77575000D03*
D12*
%TO.C,J1*%
X108370000Y-46230000D03*
X108370000Y-48770000D03*
X110910000Y-46230000D03*
X110910000Y-48770000D03*
%TO.C,J3*%
X111630000Y-64585000D03*
%TO.C,J2*%
X111630000Y-79825000D03*
%TO.C,J1*%
X113450000Y-46230000D03*
X113450000Y-48770000D03*
%TO.C,J3*%
X114170000Y-64585000D03*
%TO.C,J2*%
X114170000Y-79825000D03*
%TO.C,J1*%
X115990000Y-46230000D03*
X115990000Y-48770000D03*
%TO.C,J3*%
X116710000Y-64585000D03*
%TO.C,J2*%
X116710000Y-79825000D03*
%TO.C,J1*%
X118530000Y-46230000D03*
X118530000Y-48770000D03*
%TO.C,J3*%
X119250000Y-64585000D03*
%TO.C,J2*%
X119250000Y-79825000D03*
%TO.C,J5*%
X120500000Y-53210000D03*
X120500000Y-55750000D03*
X120500000Y-58290000D03*
X120500000Y-60830000D03*
%TO.C,J1*%
X121070000Y-46230000D03*
X121070000Y-48770000D03*
%TO.C,J3*%
X121790000Y-64585000D03*
%TO.C,J2*%
X121790000Y-79825000D03*
%TO.C,J1*%
X123610000Y-46230000D03*
X123610000Y-48770000D03*
%TO.C,J3*%
X124330000Y-64585000D03*
%TO.C,J2*%
X124330000Y-79825000D03*
%TO.C,J1*%
X126150000Y-46230000D03*
X126150000Y-48770000D03*
%TO.C,J3*%
X126870000Y-64585000D03*
%TO.C,J2*%
X126870000Y-79825000D03*
%TO.C,J1*%
X128690000Y-46230000D03*
X128690000Y-48770000D03*
%TO.C,J3*%
X129410000Y-64585000D03*
%TO.C,J2*%
X129410000Y-79825000D03*
%TO.C,J1*%
X131230000Y-46230000D03*
X131230000Y-48770000D03*
%TO.C,J3*%
X131950000Y-64585000D03*
%TO.C,J2*%
X131950000Y-79825000D03*
%TO.C,J1*%
X133770000Y-46230000D03*
X133770000Y-48770000D03*
%TO.C,J3*%
X134490000Y-64585000D03*
%TO.C,J2*%
X134490000Y-79825000D03*
%TO.C,J1*%
X136310000Y-46230000D03*
X136310000Y-48770000D03*
%TO.C,J3*%
X137030000Y-64585000D03*
%TO.C,J2*%
X137030000Y-79825000D03*
%TO.C,J1*%
X138850000Y-46230000D03*
X138850000Y-48770000D03*
%TO.C,J3*%
X139570000Y-64585000D03*
%TO.C,J2*%
X139570000Y-79825000D03*
%TO.C,J1*%
X141390000Y-46230000D03*
X141390000Y-48770000D03*
%TO.C,J3*%
X142110000Y-64585000D03*
%TO.C,J2*%
X142110000Y-79825000D03*
%TO.C,J1*%
X143930000Y-46230000D03*
X143930000Y-48770000D03*
%TO.C,J3*%
X144650000Y-64585000D03*
%TO.C,J2*%
X144650000Y-79825000D03*
%TO.C,J1*%
X146470000Y-46230000D03*
X146470000Y-48770000D03*
X149010000Y-46230000D03*
X149010000Y-48770000D03*
%TO.C,J6*%
X150425000Y-62725000D03*
X150425000Y-65265000D03*
%TO.C,J1*%
X151550000Y-46230000D03*
X151550000Y-48770000D03*
%TO.C,J7*%
X151710000Y-52250000D03*
%TO.C,J1*%
X154090000Y-46230000D03*
X154090000Y-48770000D03*
%TO.C,J7*%
X154250000Y-52250000D03*
%TO.C,J1*%
X156630000Y-46230000D03*
X156630000Y-48770000D03*
%TO.C,J7*%
X156790000Y-52250000D03*
M02*
